# xmcd CD database file
#
# Track frame offsets:
#	150
#	5256
#	14905
#	26533
#	35173
#	43950
#	53686
#	66499
#	75972
#	90341
#	96540
#	109355
#	116388
#	120813
#	136068
#	142553
#	152728
#	163527
#	171184
#	183130
#	194225
#	207510
#	222828
#	236253
#	254171
#	265945
#	278581
#	291485
#	306376
#	318207
#	321459
#	327848
#	332454
#	338009
#	349903
#
# Disc length: 4689 seconds
#
# Revision: 0
# Processed by: cddbd v1.5.2PL0 Copyright (c) Steve Scherf et al.
# Submitted via: CDex 1.75
#
DISCID=03124f23
DTITLE=Tony Crombie - Tony Crombie - CD2
DYEAR=2013
DGENRE=Jazz
TTITLE0=Man From Interpol - Main
TTITLE1=Interpol Chase - Swing Version
TTITLE2=Slow Boat
TTITLE3=My Fair Laine
TTITLE4=Fordaire
TTITLE5=Motor Museum
TTITLE6=Big Ben Bounce
TTITLE7=Blues Macabre
TTITLE8=Samba De Janeiro
TTITLE9=On The Beat
TTITLE10=Domus
TTITLE11=Interpol Cha-Cha-Cha
TTITLE12=Breezy Capers
TTITLE13=Panic Station
TTITLE14=Perpetual Lover
TTITLE15=Shapes
TTITLE16=Beguine Portent
TTITLE17=Bolero Reverie
TTITLE18=Slick Riff
TTITLE19=Sadie's Song
TTITLE20=The Toff
TTITLE21=Lakeland
TTITLE22=Cheeky Chappie
TTITLE23=Baron's Blues
TTITLE24=Mirage
TTITLE25=Interpol Cutie
TTITLE26=London Lament
TTITLE27=Night Prowl
TTITLE28=Autumn In Cuba
TTITLE29=Oriental Parade
TTITLE30=Escape To Hawaii
TTITLE31=Mood Italiano
TTITLE32=Eastern Journey
TTITLE33=Interpol Chase
TTITLE34=End Theme
EXTD=YEAR: 2013
EXTT0=
EXTT1=
EXTT2=
EXTT3=
EXTT4=
EXTT5=
EXTT6=
EXTT7=
EXTT8=
EXTT9=
EXTT10=
EXTT11=
EXTT12=
EXTT13=
EXTT14=
EXTT15=
EXTT16=
EXTT17=
EXTT18=
EXTT19=
EXTT20=
EXTT21=
EXTT22=
EXTT23=
EXTT24=
EXTT25=
EXTT26=
EXTT27=
EXTT28=
EXTT29=
EXTT30=
EXTT31=
EXTT32=
EXTT33=
EXTT34=
PLAYORDER=
